PathFileType	4	(X/Y/Z)	Patient4_TMGait_0pt7_01_right_48.trc.trc
DataRate	CameraRate	NumFrames	NumMarkers	Units	OrigDataRate	OrigDataStartFrame	OrigNumFrames
84.337349397590	84.337349397590	4	33	mm	84.337349397590	106	       141
Frame#	Time	Sacral			L.Shoulder			Chest			R.Shoulder			Neck			R.ASIS			L.ASIS			R.Thigh.Superior			R.Thigh.Lateral			R.Thigh.Inferior			R.Patella			L.Thigh.Superior			L.Thigh.Lateral			L.Thigh.Inferior			L.Patella			L.Shank.Superior			L.Shank.Lateral			L.Shank.Inferior			R.Shank.Superior			R.Shank.Lateral			R.Shank.Inferior			R.Heel			R.Midfoot.Superior			R.Midfoot.Lateral			R.Toe			L.Heel			L.Midfoot.Lateral			L.Midfoot.Superior			L.Toe			L.Elbow			L.Wrist			R.Elbow			R.Wrist			
		X1	Y1	Z1	X2	Y2	Z2	X3	Y3	Z3	X4	Y4	Z4	X5	Y5	Z5	X6	Y6	Z6	X7	Y7	Z7	X8	Y8	Z8	X9	Y9	Z9	X10	Y10	Z10	X11	Y11	Z11	X12	Y12	Z12	X13	Y13	Z13	X14	Y14	Z14	X15	Y15	Z15	X16	Y16	Z16	X17	Y17	Z17	X18	Y18	Z18	X19	Y19	Z19	X20	Y20	Z20	X21	Y21	Z21	X22	Y22	Z22	X23	Y23	Z23	X24	Y24	Z24	X25	Y25	Z25	X26	Y26	Z26	X27	Y27	Z27	X28	Y28	Z28	X29	Y29	Z29	X30	Y30	Z30	X31	Y31	Z31	X32	Y32	Z32	X33	Y33	Z33	

106	56.425000000000	827.208148292848	1015.316630704245	450.211456908761	1033.830239418192	1433.053511742502	267.920924303881	1123.265827909159	1363.722625255445	438.358353470401	1029.578388745432	1449.937727088843	601.901965898349	1028.380154024743	1498.431762732211	420.136556486950	1044.330092496109	951.654295996003	584.726051541074	1050.537295690568	962.763034724731	310.127984222451	1136.202475021760	795.111213177780	568.407757581616	1101.498622947416	672.416727457462	644.027011808989	1200.661831094423	639.664758598851	574.037851523293	1228.994237967244	531.360470386357	600.197114822103	1081.738709411990	746.854308924139	340.324539656074	984.078500568282	638.686380081962	278.574491809428	1058.378689543565	554.200760338443	343.835439126505	1052.035357981240	486.077300137366	354.626211271866	1024.042286736429	416.303117531862	345.672879696624	931.593004543875	304.775034078297	292.374520158905	975.862431565744	192.884091555952	367.540556709464	1165.781075973522	447.310710641180	602.383043365901	1051.053255566873	386.151234964855	656.085739755038	1060.422417860301	275.993061397941	607.696834256734	876.278461787771	181.303623898897	570.713652724257	1049.612468672236	147.140769420812	617.480837964189	940.703456961226	127.953464544811	644.078396393757	1130.373360173413	46.019039903724	642.020398329126	843.145670722117	38.735708121021	408.342514401898	919.001603888243	35.584339208617	328.865516407300	1001.540096298224	95.976693628630	357.718113976850	1130.979251484613	43.244541127751	332.893678951589	1049.089161432035	1096.828299255385	123.193656439896	1260.272871361160	956.229325579760	182.652690001257	950.840856477158	1112.532689923118	726.835797042220	1028.916476288207	860.586713494346	731.169711462111	
107	56.436857142857	826.398455866423	1015.354564522540	449.338391384597	1035.128314492986	1432.818883160163	267.843762828110	1123.100326797383	1363.330592225898	438.955747471260	1028.344208891180	1449.727859593624	601.708555967966	1028.329958126212	1498.219039240559	420.064759226475	1043.012521137063	951.754216329836	584.971746402652	1050.752395192234	962.772104222865	310.250999309400	1135.714792967867	796.642880883556	567.988800553409	1102.722161349399	673.484325043499	643.562542067486	1201.224734005668	641.433212772151	572.703386359615	1231.652773607625	535.015168624133	598.935745945079	1078.503793146367	745.619609769292	341.537808822196	979.652315092950	638.728162111887	278.388503521744	1051.802353533864	553.244516869698	344.294328945056	1044.325979020381	485.504057886553	355.013951048457	1016.511716897567	416.050432072661	345.783300982122	924.051707996294	304.704968697024	292.191970522242	967.769485348335	192.774295621322	367.644606906115	1172.536027074274	449.111927273241	601.847049812217	1062.568783312651	381.562795067669	657.374964993155	1077.636295295197	272.030157708987	608.896422150993	899.066481957545	166.774088292475	574.678140135244	1074.511927336580	142.661818507376	619.021795431977	967.356882692957	117.251088964421	647.038647390878	1161.245807278837	46.316604977814	642.412605578375	834.782269982652	38.733480203065	408.301161845783	910.633044292599	35.568379689048	328.867389410498	993.179965062374	95.946523168030	357.763766164360	1122.620890352119	43.197158016598	332.921009814415	1056.665098397783	1097.510108589491	123.281948354581	1274.166512115423	968.837737504294	185.484756903588	942.428796647555	1114.299408110049	726.531591238365	1004.693929892677	857.719250874830	734.862070993049	
108	56.448714285714	825.737252188697	1015.247311930846	448.650600897131	1036.440010581583	1432.449234092218	267.953380926217	1123.019641716795	1362.805913576515	439.697131234215	1027.235812165103	1449.350783420634	601.691515115001	1028.381664863306	1497.852870097541	420.192171961125	1041.903870541922	951.653799669399	585.298363940049	1051.254071372543	962.760247498876	310.431441742641	1134.969845403071	797.429905231741	567.476607518172	1103.300425421528	673.906896183126	643.023630178212	1200.948864770326	642.260648012140	571.214551079435	1233.281460786413	537.956845112644	597.448267970547	1075.343944629259	744.302696686687	342.652068489582	975.173605596166	638.738025146017	278.212532960730	1045.179316248344	552.272663645797	344.686226528791	1036.616595813782	484.948269600889	355.319547845535	1008.948513557856	415.806174762548	345.859018040787	916.478447261585	304.626687634250	292.010409862411	959.681401959333	192.673278323142	367.752038375880	1178.503099530905	450.491969820535	601.249484903165	1073.938618491420	376.671598797745	658.764397752736	1094.883073229962	268.121864384188	610.208755015156	922.906592497348	152.139130519711	578.867751288499	1099.845231545677	138.808599248993	620.820298249266	994.925359982079	107.006756547887	650.271143128996	1192.433468840859	47.851632506292	643.116263321450	826.427211161844	38.735472507164	408.265496698181	902.260512266936	35.551417348697	328.880351105975	984.819603060487	95.919449045256	357.816236045590	1114.254863482273	43.158642142041	332.953308363687	1063.945632649109	1098.191637119909	123.580595947088	1287.056153356054	981.761018694998	188.517501831739	933.818376659112	1116.208610735589	726.300648952371	981.293730000967	856.466448114596	738.205289671590	
109	56.460571428571	825.242886936025	1014.980572943563	448.153539504584	1037.754055653760	1431.935872473039	268.246006639593	1123.026464475056	1362.148990341811	440.574354476074	1026.263263943277	1448.815126131171	601.845642034463	1028.541471066861	1497.328565548645	420.504657672893	1041.030783114348	951.349954915616	585.702561571321	1052.018787438645	962.715937335033	310.689208317607	1133.983224280071	797.436926221100	566.910343254685	1103.189288023895	673.660963236831	642.468454514114	1199.854389986687	642.136052768536	569.675175378074	1233.879786042036	540.156924992833	595.816552258573	1072.268808780957	742.903142060333	343.609685404404	970.630389400741	638.719482615680	278.038244516106	1038.528877711435	551.287494709801	344.984260952450	1028.938726396173	484.403764022988	355.514301237408	1001.358604302031	415.572074736632	345.882368049060	908.860405463583	304.548413065056	291.824325663353	951.593787170952	192.582615150373	367.848897604064	1183.651709143268	451.457634695015	600.637635872847	1085.042415054944	371.590640604022	660.201056934615	1111.991335425998	264.407953776295	611.566568017658	947.627624752354	137.690579938231	583.052148254767	1125.342278987756	135.778063502705	622.796545931106	1023.123801030126	97.463667850519	653.588556156689	1223.556114014597	50.796604398834	644.070067649321	818.075983772797	38.742779398954	408.236561481189	893.882456839147	35.533899712545	328.901532361095	976.457466367968	95.895098717409	357.868776787333	1105.878771105036	43.131090763456	332.988541549120	1070.931814914271	1098.845015487963	124.072000111092	1298.905247068804	994.890315436922	191.721112700372	925.066003716421	1118.285741248107	726.153319210420	958.900442905980	856.612458035351	741.201520585659	
